<svg width="48" height="48" viewBox="0 0 48 48" fill="none" xmlns="http://www.w3.org/2000/svg">
<path d="M14.2841 19.2906H36.7472V28.5714C36.7472 35.7241 30.9541 41.5173 23.8013 41.5173H23.0526C15.8999 41.5173 10.1068 35.7241 10.1068 28.5714V24.2168" stroke="white" stroke-width="2.5" stroke-miterlimit="10" stroke-linecap="round"/>
<path d="M8.94427 46.5219H37.9098" stroke="white" stroke-width="2.5" stroke-miterlimit="10" stroke-linecap="round"/>
<path d="M26.6783 11.2905C26.6783 11.2905 23.6044 8.86682 26.6783 6.38407C29.7522 3.90131 26.6783 1.47766 26.6783 1.47766" stroke="white" stroke-width="2.5" stroke-miterlimit="10" stroke-linecap="round"/>
<path d="M20.1761 11.2905C20.1761 11.2905 17.1022 8.86682 20.1761 6.38407C23.25 3.90131 20.1761 1.47766 20.1761 1.47766" stroke="white" stroke-width="2.5" stroke-miterlimit="10" stroke-linecap="round"/>
<path d="M41.8114 30.8571C44.4231 30.8571 46.5404 28.7398 46.5404 26.128C46.5404 23.5162 44.4231 21.3989 41.8114 21.3989C39.1996 21.3989 37.0823 23.5162 37.0823 26.128C37.0823 28.7398 39.1996 30.8571 41.8114 30.8571Z" stroke="white" stroke-width="2.5" stroke-miterlimit="10" stroke-linecap="round"/>
</svg>
