<svg width="48" height="48" viewBox="0 0 48 48" fill="none" xmlns="http://www.w3.org/2000/svg">
<path d="M13.0205 46.4629H19.9479" stroke="white" stroke-width="2.5" stroke-miterlimit="10" stroke-linecap="round"/>
<path d="M16.4844 14.4487V46.4624" stroke="white" stroke-width="2.5" stroke-miterlimit="10" stroke-linecap="round"/>
<path d="M26.3015 31.5833C23.8216 33.7967 20.3169 34.7395 16.4637 34.5961C9.10592 34.3296 2.6499 28.4065 2.6499 20.7822C2.6499 18.0564 3.42872 14.8181 4.80191 11.7848" stroke="white" stroke-width="2.5" stroke-miterlimit="10" stroke-linecap="round"/>
<path d="M9.12656 5.22626C11.2581 2.99228 13.779 1.53711 16.4844 1.53711C24.1086 1.53711 30.2982 13.1784 30.2982 20.8027C30.2982 22.9137 30.4417 25.4141 29.6014 27.2177" stroke="white" stroke-width="2.5" stroke-miterlimit="10" stroke-linecap="round"/>
<path d="M10.1924 20.6182L16.1155 26.8897" stroke="white" stroke-width="2.5" stroke-miterlimit="10" stroke-linecap="round"/>
<path d="M22.1614 17.0928L16.9556 22.647" stroke="white" stroke-width="2.5" stroke-miterlimit="10" stroke-linecap="round"/>
<path d="M43.1899 46.2991H30.1548C28.4332 46.2991 27.0601 44.9055 27.0601 43.2043V30.7022C27.0601 28.9806 28.4537 27.6074 30.1548 27.6074H43.1899C44.9115 27.6074 46.2847 29.0011 46.2847 30.7022V43.2043C46.2847 44.9055 44.9115 46.2991 43.1899 46.2991Z" stroke="white" stroke-width="2.5" stroke-miterlimit="10" stroke-linecap="round"/>
<path d="M34.1103 33.9402V40.8266H32.1633V35.4363H30.8926V33.9402H34.1103Z" fill="white"/>
<path d="M42.4313 39.2896V40.8268H37.0615V39.597L39.6439 37.1786C40.1973 36.6662 40.2793 36.3588 40.2793 36.0719C40.2793 35.621 39.9923 35.3545 39.398 35.3545C38.9061 35.3545 38.4347 35.58 38.1682 36.0309L36.7131 35.2315C37.246 34.3707 38.2092 33.7969 39.5619 33.7969C41.1401 33.7969 42.2468 34.6167 42.2468 35.8874C42.2468 36.5637 42.0623 37.1581 41.0786 38.0804L39.7874 39.2896H42.4313Z" fill="white"/>
</svg>
