<svg width="18" height="15" viewBox="0 0 18 15" fill="none" xmlns="http://www.w3.org/2000/svg">
<path d="M18 1.77577C17.3379 2.07681 16.6257 2.28043 15.8788 2.37136C16.6414 1.90285 17.2267 1.16154 17.5029 0.276758C16.7893 0.710816 15.9986 1.0257 15.1578 1.19543C14.4842 0.459757 13.5244 0 12.4616 0C10.4225 0 8.76866 1.69585 8.76866 3.78678C8.76866 4.08359 8.80143 4.37249 8.86478 4.64982C5.79565 4.49195 3.07436 2.98447 1.25282 0.692742C0.935004 1.25191 0.752685 1.90285 0.752685 2.59672C0.752685 3.91019 1.40512 5.06975 2.39548 5.74866C1.79042 5.72917 1.2206 5.55888 0.722941 5.2745C0.722666 5.2906 0.722666 5.30669 0.722666 5.32251C0.722666 7.1573 1.99614 8.68766 3.68521 9.0353C3.37565 9.12228 3.04875 9.16831 2.71248 9.16831C2.47397 9.16831 2.24291 9.14487 2.01763 9.10082C2.48747 10.6049 3.85101 11.6998 5.46736 11.7306C4.20325 12.7464 2.61113 13.3516 0.880474 13.3516C0.583035 13.3516 0.28835 13.3338 0 13.2985C1.63343 14.3733 3.57505 15 5.66042 15C12.453 15 16.1677 9.22988 16.1677 4.22536C16.1677 4.06128 16.1641 3.89777 16.157 3.73567C16.8791 3.20192 17.5051 2.53516 18 1.77577Z" fill="white"/>
</svg>
