<svg width="48" height="48" viewBox="0 0 48 48" fill="none" xmlns="http://www.w3.org/2000/svg">
<path d="M5.33331 41.5391V32.9231C5.33331 30.0647 7.63012 27.7333 10.4462 27.7333H29.0204C31.8365 27.7333 34.1333 30.0647 34.1333 32.9231V41.5999" stroke="white" stroke-width="2.5" stroke-miterlimit="10" stroke-linecap="round"/>
<path d="M17.0135 8.21138C17.9933 7.74104 19.1104 7.46667 20.2667 7.46667C24.3821 7.46667 27.7333 10.8179 27.7333 14.9333C27.7333 19.0488 24.3821 22.4 20.2667 22.4C16.1512 22.4 12.8 19.0488 12.8 14.9333C12.8 14.0906 12.9372 13.2871 13.1919 12.5228" stroke="white" stroke-width="2.5" stroke-miterlimit="10" stroke-linecap="round"/>
<path d="M35.2 18.5666L37.6972 21.1141C37.9838 21.4064 38.4546 21.4064 38.7412 21.1141L44.8 14.9333" stroke="white" stroke-width="2.5" stroke-miterlimit="10" stroke-linecap="round"/>
</svg>
