<?xml version="1.0" encoding="utf-8"?>
<!-- Generator: Adobe Illustrator 25.0.1, SVG Export Plug-In . SVG Version: 6.00 Build 0)  -->
<svg version="1.1" id="Layer_1" xmlns="http://www.w3.org/2000/svg" xmlns:xlink="http://www.w3.org/1999/xlink" x="0px" y="0px"
	 viewBox="0 0 841.89 595.28" style="enable-background:new 0 0 841.89 595.28;" xml:space="preserve">
<style type="text/css">
	.st0{fill:#1B1E64;}
</style>
<g>
	<g>
		<path class="st0" d="M579.33,169.39c0,0-50.28,0-50.28,0c-7.91,37.48-26.66,61.23-56.79,78.68V130.26h-50.4v218.49h50.4v-78.68
			c30.14,17.45,48.88,41.2,56.79,78.68c0.01,0,50.28,0,50.28,0c-0.38-3.01-11.49-49.4-48.81-89.68
			C567.85,218.79,578.95,172.4,579.33,169.39z"/>
		<path class="st0" d="M664.65,167.21c-53.34,0-93.56,39.71-93.56,92.38c0,52.67,40.22,92.38,93.56,92.38
			c53.33,0,93.55-39.72,93.55-92.38C758.2,206.93,717.98,167.21,664.65,167.21z M710.94,259.59c0,27.28-20.33,48.64-46.29,48.64
			c-25.96,0-46.3-21.37-46.3-48.64s20.34-48.64,46.3-48.64C690.6,210.95,710.94,232.31,710.94,259.59z"/>
		<path class="st0" d="M238.9,276.84h18.02c0.12-1.56,0.5-7.43,0.5-17.26c0-52.66-40.22-92.38-93.55-92.38
			c-53.34,0-93.56,39.71-93.56,92.38c0,52.67,40.22,92.38,93.56,92.38c32.23,0,59.66-14.5,76.33-37.6L197,293.86
			c-8.35,8.92-20.02,14.38-33.14,14.38c-20.15,0-36.9-12.87-43.4-31.39h86.79H238.9z M120.46,242.36
			c6.49-18.53,23.25-31.41,43.41-31.41c20.16,0,36.91,12.89,43.4,31.41H120.46z"/>
		<path class="st0" d="M356.13,130.26v117.82c-30.14-17.45-48.88-41.2-56.79-78.68c-0.01,0-50.28,0-50.28,0
			c0.38,3.01,11.49,49.4,48.81,89.68c-37.33,40.27-48.43,86.67-48.81,89.68c0,0,50.28,0,50.28,0c7.91-37.48,26.66-61.23,56.79-78.68
			v78.68h50.4V130.26H356.13z"/>
	</g>
	<g>
		<g>
			<path class="st0" d="M89.26,386.6c1.75-1.03,3.78-1.54,6.1-1.54c2.38,0,4.55,0.57,6.49,1.71c1.94,1.14,3.47,2.75,4.58,4.83
				c1.11,2.08,1.67,4.48,1.67,7.23c0,2.71-0.56,5.13-1.67,7.25c-1.11,2.12-2.64,3.77-4.58,4.95c-1.94,1.18-4.11,1.76-6.49,1.76
				c-2.29,0-4.3-0.51-6.05-1.54c-1.75-1.03-3.08-2.31-3.99-3.85v17.69h-4.46v-39.59h4.46v4.95C86.2,388.91,87.51,387.62,89.26,386.6
				z M102.32,393.53c-0.82-1.5-1.92-2.65-3.31-3.43c-1.39-0.78-2.92-1.18-4.58-1.18c-1.63,0-3.14,0.4-4.53,1.2
				c-1.39,0.8-2.5,1.96-3.33,3.48c-0.83,1.52-1.25,3.28-1.25,5.27c0,2.03,0.42,3.8,1.25,5.32c0.83,1.52,1.94,2.68,3.33,3.48
				c1.39,0.8,2.9,1.2,4.53,1.2c1.67,0,3.19-0.4,4.58-1.2c1.39-0.8,2.49-1.96,3.31-3.48c0.82-1.52,1.22-3.31,1.22-5.37
				C103.54,396.79,103.13,395.03,102.32,393.53z"/>
			<path class="st0" d="M118.4,411.07c-2.04-1.14-3.64-2.77-4.8-4.88c-1.16-2.11-1.74-4.55-1.74-7.33c0-2.74,0.6-5.17,1.79-7.28
				c1.19-2.11,2.82-3.72,4.88-4.85c2.06-1.13,4.36-1.69,6.91-1.69c2.55,0,4.85,0.56,6.91,1.69c2.06,1.13,3.68,2.74,4.88,4.83
				c1.19,2.09,1.79,4.52,1.79,7.3c0,2.78-0.61,5.22-1.84,7.33c-1.23,2.11-2.88,3.73-4.97,4.88c-2.09,1.14-4.41,1.71-6.96,1.71
				C122.72,412.78,120.44,412.21,118.4,411.07z M129.74,407.74c1.4-0.75,2.54-1.88,3.41-3.38c0.86-1.5,1.3-3.33,1.3-5.49
				c0-2.16-0.42-3.98-1.27-5.49c-0.85-1.5-1.96-2.62-3.33-3.36c-1.37-0.74-2.86-1.1-4.46-1.1c-1.63,0-3.13,0.37-4.48,1.1
				c-1.36,0.73-2.44,1.85-3.26,3.36c-0.82,1.5-1.23,3.33-1.23,5.49c0,2.19,0.4,4.04,1.2,5.54c0.8,1.5,1.87,2.62,3.21,3.36
				c1.34,0.74,2.81,1.1,4.41,1.1C126.83,408.86,128.34,408.49,129.74,407.74z"/>
			<path class="st0" d="M206.86,400.58H185.4c0.16,2.65,1.07,4.71,2.72,6.2c1.65,1.49,3.65,2.23,6,2.23c1.93,0,3.54-0.45,4.83-1.35
				c1.29-0.9,2.2-2.1,2.72-3.6h4.8c-0.72,2.58-2.16,4.68-4.31,6.3c-2.16,1.62-4.83,2.43-8.04,2.43c-2.55,0-4.83-0.57-6.83-1.71
				s-3.58-2.77-4.73-4.88c-1.14-2.11-1.71-4.55-1.71-7.33c0-2.78,0.55-5.21,1.67-7.3c1.11-2.09,2.67-3.7,4.68-4.83
				c2.01-1.13,4.32-1.69,6.93-1.69c2.55,0,4.8,0.56,6.76,1.67c1.96,1.11,3.47,2.64,4.53,4.58c1.06,1.94,1.59,4.14,1.59,6.59
				C207,398.74,206.95,399.64,206.86,400.58z M201.27,392.57c-0.75-1.23-1.77-2.16-3.06-2.79c-1.29-0.64-2.72-0.96-4.29-0.96
				c-2.25,0-4.17,0.72-5.76,2.16c-1.58,1.44-2.49,3.43-2.72,5.98h16.95C202.4,395.26,202.02,393.8,201.27,392.57z"/>
			<path class="st0" d="M220.08,386.28c1.45-0.85,3.23-1.27,5.32-1.27v4.61h-1.18c-5,0-7.5,2.71-7.5,8.13v14.6h-4.46v-26.85h4.46
				v4.36C217.5,388.32,218.62,387.13,220.08,386.28z"/>
			<path class="st0" d="M229.64,380.25c-0.59-0.59-0.88-1.31-0.88-2.16s0.29-1.57,0.88-2.16s1.31-0.88,2.16-0.88
				c0.82,0,1.51,0.29,2.08,0.88c0.57,0.59,0.86,1.31,0.86,2.16s-0.29,1.57-0.86,2.16c-0.57,0.59-1.27,0.88-2.08,0.88
				C230.94,381.13,230.23,380.84,229.64,380.25z M233.95,385.49v26.85h-4.46v-26.85H233.95z"/>
			<path class="st0" d="M261.76,387.97c2.02,1.98,3.04,4.83,3.04,8.55v15.83h-4.41v-15.19c0-2.68-0.67-4.73-2.01-6.15
				c-1.34-1.42-3.17-2.13-5.49-2.13c-2.35,0-4.22,0.73-5.61,2.2c-1.39,1.47-2.08,3.61-2.08,6.42v14.84h-4.46v-26.85h4.46v3.82
				c0.88-1.37,2.08-2.43,3.6-3.18c1.52-0.75,3.19-1.13,5.02-1.13C257.09,385,259.73,385.99,261.76,387.97z"/>
			<path class="st0" d="M288.6,386.57c1.75,1.01,3.05,2.29,3.9,3.82v-4.9H297v27.44c0,2.45-0.52,4.63-1.57,6.54
				c-1.05,1.91-2.54,3.4-4.48,4.48c-1.94,1.08-4.21,1.62-6.79,1.62c-3.53,0-6.47-0.83-8.82-2.5s-3.74-3.94-4.16-6.81h4.41
				c0.49,1.63,1.5,2.95,3.04,3.94c1.53,1,3.38,1.49,5.54,1.49c2.45,0,4.45-0.77,6-2.3c1.55-1.54,2.33-3.69,2.33-6.47v-5.63
				c-0.88,1.57-2.19,2.87-3.92,3.92c-1.73,1.05-3.76,1.57-6.08,1.57c-2.38,0-4.55-0.59-6.49-1.76c-1.94-1.18-3.47-2.82-4.58-4.95
				c-1.11-2.12-1.67-4.54-1.67-7.25c0-2.74,0.55-5.15,1.67-7.23c1.11-2.07,2.64-3.68,4.58-4.83c1.94-1.14,4.11-1.71,6.49-1.71
				C284.82,385.05,286.85,385.56,288.6,386.57z M291.27,393.58c-0.82-1.5-1.92-2.65-3.31-3.45c-1.39-0.8-2.92-1.2-4.58-1.2
				c-1.67,0-3.18,0.39-4.56,1.18c-1.37,0.78-2.47,1.93-3.28,3.43c-0.82,1.5-1.23,3.27-1.23,5.29c0,2.06,0.41,3.85,1.23,5.37
				c0.82,1.52,1.91,2.68,3.28,3.48c1.37,0.8,2.89,1.2,4.56,1.2c1.67,0,3.19-0.4,4.58-1.2c1.39-0.8,2.49-1.96,3.31-3.48
				c0.82-1.52,1.23-3.29,1.23-5.32C292.49,396.84,292.08,395.08,291.27,393.58z"/>
			<path class="st0" d="M323.06,389.17v15.83c0,1.31,0.28,2.23,0.83,2.77c0.56,0.54,1.52,0.81,2.89,0.81h3.28v3.77h-4.02
				c-2.48,0-4.34-0.57-5.58-1.71c-1.24-1.14-1.86-3.02-1.86-5.63v-15.83h-3.48v-3.67h3.48v-6.76h4.46v6.76h7.01v3.67H323.06z"/>
			<path class="st0" d="M353.73,386.3c1.63,0.87,2.92,2.16,3.85,3.89c0.93,1.73,1.4,3.84,1.4,6.32v15.83h-4.41v-15.19
				c0-2.68-0.67-4.73-2.01-6.15c-1.34-1.42-3.17-2.13-5.49-2.13c-2.35,0-4.22,0.73-5.61,2.2c-1.39,1.47-2.08,3.61-2.08,6.42v14.84
				h-4.46v-36.25h4.46v13.23c0.88-1.37,2.1-2.43,3.65-3.18c1.55-0.75,3.29-1.13,5.22-1.13C350.27,385,352.1,385.44,353.73,386.3z"/>
			<path class="st0" d="M389.95,400.58H368.5c0.16,2.65,1.07,4.71,2.72,6.2c1.65,1.49,3.65,2.23,6,2.23c1.93,0,3.54-0.45,4.83-1.35
				c1.29-0.9,2.2-2.1,2.72-3.6h4.8c-0.72,2.58-2.16,4.68-4.31,6.3c-2.16,1.62-4.83,2.43-8.04,2.43c-2.55,0-4.83-0.57-6.83-1.71
				s-3.58-2.77-4.73-4.88c-1.14-2.11-1.71-4.55-1.71-7.33c0-2.78,0.55-5.21,1.67-7.3c1.11-2.09,2.67-3.7,4.68-4.83
				c2.01-1.13,4.32-1.69,6.93-1.69c2.55,0,4.8,0.56,6.76,1.67c1.96,1.11,3.47,2.64,4.53,4.58c1.06,1.94,1.59,4.14,1.59,6.59
				C390.1,398.74,390.05,399.64,389.95,400.58z M384.37,392.57c-0.75-1.23-1.77-2.16-3.06-2.79c-1.29-0.64-2.72-0.96-4.29-0.96
				c-2.25,0-4.17,0.72-5.76,2.16c-1.58,1.44-2.49,3.43-2.72,5.98h16.95C385.5,395.26,385.12,393.8,384.37,392.57z"/>
			<path class="st0" d="M433.41,400.58h-21.46c0.16,2.65,1.07,4.71,2.72,6.2c1.65,1.49,3.65,2.23,6,2.23c1.93,0,3.54-0.45,4.83-1.35
				c1.29-0.9,2.2-2.1,2.72-3.6h4.8c-0.72,2.58-2.16,4.68-4.31,6.3c-2.16,1.62-4.83,2.43-8.04,2.43c-2.55,0-4.83-0.57-6.83-1.71
				s-3.58-2.77-4.73-4.88c-1.14-2.11-1.71-4.55-1.71-7.33c0-2.78,0.55-5.21,1.67-7.3c1.11-2.09,2.67-3.7,4.68-4.83
				c2.01-1.13,4.32-1.69,6.93-1.69c2.55,0,4.8,0.56,6.76,1.67c1.96,1.11,3.47,2.64,4.53,4.58c1.06,1.94,1.59,4.14,1.59,6.59
				C433.56,398.74,433.51,399.64,433.41,400.58z M427.83,392.57c-0.75-1.23-1.77-2.16-3.06-2.79c-1.29-0.64-2.72-0.96-4.29-0.96
				c-2.25,0-4.17,0.72-5.76,2.16c-1.58,1.44-2.49,3.43-2.72,5.98h16.95C428.95,395.26,428.58,393.8,427.83,392.57z"/>
			<path class="st0" d="M459.83,387.97c2.02,1.98,3.04,4.83,3.04,8.55v15.83h-4.41v-15.19c0-2.68-0.67-4.73-2.01-6.15
				c-1.34-1.42-3.17-2.13-5.49-2.13c-2.35,0-4.22,0.73-5.61,2.2c-1.39,1.47-2.08,3.61-2.08,6.42v14.84h-4.46v-26.85h4.46v3.82
				c0.88-1.37,2.08-2.43,3.6-3.18c1.52-0.75,3.19-1.13,5.02-1.13C455.16,385,457.81,385.99,459.83,387.97z"/>
			<path class="st0" d="M478.31,407.8l8.33-22.31h4.75l-10.36,26.85h-5.53l-10.36-26.85h4.8L478.31,407.8z"/>
			<path class="st0" d="M495.3,380.25c-0.59-0.59-0.88-1.31-0.88-2.16s0.29-1.57,0.88-2.16s1.31-0.88,2.16-0.88
				c0.82,0,1.51,0.29,2.08,0.88s0.86,1.31,0.86,2.16s-0.29,1.57-0.86,2.16s-1.27,0.88-2.08,0.88
				C496.6,381.13,495.88,380.84,495.3,380.25z M499.61,385.49v26.85h-4.46v-26.85H499.61z"/>
			<path class="st0" d="M514.21,386.28c1.45-0.85,3.23-1.27,5.32-1.27v4.61h-1.18c-5,0-7.5,2.71-7.5,8.13v14.6h-4.46v-26.85h4.46
				v4.36C511.64,388.32,512.76,387.13,514.21,386.28z"/>
			<path class="st0" d="M528.01,411.07c-2.04-1.14-3.64-2.77-4.8-4.88c-1.16-2.11-1.74-4.55-1.74-7.33c0-2.74,0.6-5.17,1.79-7.28
				c1.19-2.11,2.82-3.72,4.88-4.85c2.06-1.13,4.36-1.69,6.91-1.69s4.85,0.56,6.91,1.69c2.06,1.13,3.68,2.74,4.88,4.83
				c1.19,2.09,1.79,4.52,1.79,7.3c0,2.78-0.61,5.22-1.84,7.33c-1.22,2.11-2.88,3.73-4.97,4.88c-2.09,1.14-4.41,1.71-6.96,1.71
				C532.33,412.78,530.05,412.21,528.01,411.07z M539.35,407.74c1.4-0.75,2.54-1.88,3.41-3.38c0.87-1.5,1.3-3.33,1.3-5.49
				c0-2.16-0.42-3.98-1.27-5.49c-0.85-1.5-1.96-2.62-3.33-3.36c-1.37-0.74-2.86-1.1-4.46-1.1c-1.63,0-3.13,0.37-4.48,1.1
				c-1.36,0.73-2.44,1.85-3.26,3.36c-0.82,1.5-1.22,3.33-1.22,5.49c0,2.19,0.4,4.04,1.2,5.54c0.8,1.5,1.87,2.62,3.21,3.36
				c1.34,0.74,2.81,1.1,4.41,1.1C536.45,408.86,537.95,408.49,539.35,407.74z"/>
			<path class="st0" d="M554.04,391.59c1.11-2.07,2.65-3.68,4.63-4.83c1.98-1.14,4.24-1.71,6.79-1.71c3.3,0,6.02,0.8,8.16,2.4
				c2.14,1.6,3.55,3.82,4.24,6.66h-4.8c-0.46-1.63-1.35-2.92-2.67-3.87c-1.32-0.95-2.96-1.42-4.92-1.42c-2.55,0-4.61,0.87-6.17,2.62
				c-1.57,1.75-2.35,4.22-2.35,7.42c0,3.23,0.78,5.73,2.35,7.5c1.57,1.76,3.63,2.65,6.17,2.65c1.96,0,3.59-0.46,4.9-1.37
				s2.21-2.22,2.7-3.92h4.8c-0.72,2.74-2.16,4.94-4.31,6.59c-2.16,1.65-4.85,2.47-8.08,2.47c-2.55,0-4.81-0.57-6.79-1.71
				c-1.98-1.14-3.52-2.76-4.63-4.85c-1.11-2.09-1.67-4.54-1.67-7.35C552.37,396.09,552.93,393.67,554.04,391.59z"/>
			<path class="st0" d="M587.8,411.07c-2.04-1.14-3.64-2.77-4.8-4.88c-1.16-2.11-1.74-4.55-1.74-7.33c0-2.74,0.6-5.17,1.79-7.28
				c1.19-2.11,2.82-3.72,4.88-4.85c2.06-1.13,4.36-1.69,6.91-1.69s4.85,0.56,6.91,1.69c2.06,1.13,3.68,2.74,4.88,4.83
				c1.19,2.09,1.79,4.52,1.79,7.3c0,2.78-0.61,5.22-1.84,7.33c-1.22,2.11-2.88,3.73-4.97,4.88c-2.09,1.14-4.41,1.71-6.96,1.71
				C592.12,412.78,589.84,412.21,587.8,411.07z M599.14,407.74c1.4-0.75,2.54-1.88,3.41-3.38c0.87-1.5,1.3-3.33,1.3-5.49
				c0-2.16-0.42-3.98-1.27-5.49c-0.85-1.5-1.96-2.62-3.33-3.36c-1.37-0.74-2.86-1.1-4.46-1.1c-1.63,0-3.13,0.37-4.48,1.1
				c-1.36,0.73-2.44,1.85-3.26,3.36c-0.82,1.5-1.22,3.33-1.22,5.49c0,2.19,0.4,4.04,1.2,5.54c0.8,1.5,1.87,2.62,3.21,3.36
				c1.34,0.74,2.81,1.1,4.41,1.1C596.23,408.86,597.73,408.49,599.14,407.74z"/>
			<path class="st0" d="M634.59,387.97c2.02,1.98,3.04,4.83,3.04,8.55v15.83h-4.41v-15.19c0-2.68-0.67-4.73-2.01-6.15
				c-1.34-1.42-3.17-2.13-5.49-2.13c-2.35,0-4.22,0.73-5.61,2.2c-1.39,1.47-2.08,3.61-2.08,6.42v14.84h-4.46v-26.85h4.46v3.82
				c0.88-1.37,2.08-2.43,3.6-3.18c1.52-0.75,3.19-1.13,5.02-1.13C629.91,385,632.56,385.99,634.59,387.97z"/>
			<path class="st0" d="M649.13,411.07c-2.04-1.14-3.64-2.77-4.8-4.88c-1.16-2.11-1.74-4.55-1.74-7.33c0-2.74,0.6-5.17,1.79-7.28
				c1.19-2.11,2.82-3.72,4.88-4.85c2.06-1.13,4.36-1.69,6.91-1.69s4.85,0.56,6.91,1.69c2.06,1.13,3.68,2.74,4.88,4.83
				c1.19,2.09,1.79,4.52,1.79,7.3c0,2.78-0.61,5.22-1.84,7.33c-1.22,2.11-2.88,3.73-4.97,4.88c-2.09,1.14-4.41,1.71-6.96,1.71
				C653.45,412.78,651.17,412.21,649.13,411.07z M660.47,407.74c1.4-0.75,2.54-1.88,3.41-3.38c0.87-1.5,1.3-3.33,1.3-5.49
				c0-2.16-0.42-3.98-1.27-5.49c-0.85-1.5-1.96-2.62-3.33-3.36c-1.37-0.74-2.86-1.1-4.46-1.1c-1.63,0-3.13,0.37-4.48,1.1
				c-1.36,0.73-2.44,1.85-3.26,3.36c-0.82,1.5-1.22,3.33-1.22,5.49c0,2.19,0.4,4.04,1.2,5.54c0.8,1.5,1.87,2.62,3.21,3.36
				c1.34,0.74,2.81,1.1,4.41,1.1C657.56,408.86,659.06,408.49,660.47,407.74z"/>
			<path class="st0" d="M712.77,386.3c1.63,0.87,2.92,2.16,3.87,3.89c0.95,1.73,1.42,3.84,1.42,6.32v15.83h-4.41v-15.19
				c0-2.68-0.66-4.73-1.98-6.15c-1.32-1.42-3.11-2.13-5.36-2.13c-2.32,0-4.17,0.74-5.54,2.23c-1.37,1.49-2.06,3.63-2.06,6.44v14.8
				h-4.41v-15.19c0-2.68-0.66-4.73-1.98-6.15c-1.32-1.42-3.11-2.13-5.36-2.13c-2.32,0-4.17,0.74-5.54,2.23
				c-1.37,1.49-2.06,3.63-2.06,6.44v14.8h-4.46v-26.85h4.46v3.87c0.88-1.4,2.07-2.48,3.55-3.23c1.49-0.75,3.13-1.13,4.92-1.13
				c2.25,0,4.25,0.51,5.98,1.52s3.02,2.5,3.87,4.46c0.75-1.89,1.99-3.36,3.72-4.41c1.73-1.04,3.66-1.57,5.78-1.57
				C709.27,385,711.14,385.44,712.77,386.3z"/>
			<path class="st0" d="M746.91,385.49l-16.25,39.57h-5.03l5.38-13.02l-10.83-26.55h4.95l8.43,21.58l8.33-21.58H746.91z"/>
		</g>
	</g>
	<polygon class="st0" points="174.78,385.49 168.61,407.46 162.2,385.49 159.92,385.49 157.64,385.49 151.24,407.46 145.06,385.49 
		140.42,385.49 148.51,412.34 153.71,412.34 159.92,391.11 166.13,412.34 171.33,412.34 179.42,385.49 	"/>
</g>
</svg>
