<?xml version="1.0" encoding="utf-8"?>
<svg version="1.1" id="Layer_1" xmlns="http://www.w3.org/2000/svg" xmlns:xlink="http://www.w3.org/1999/xlink" x="0px"
	y="0px" viewBox="0 0 850 600" style="enable-background:new 0 0 850 600;" xml:space="preserve">
	<style type="text/css">
		.path {
			fill: #FFFFFF;
		}
	</style>
	<g>

		<path class="path" d="M579.33,169.39c0,0-50.28,0-50.28,0c-7.91,37.48-26.66,61.23-56.79,78.68V130.26h-50.4v218.49h50.4v-78.68
			c30.14,17.45,48.88,41.2,56.79,78.68c0.01,0,50.28,0,50.28,0c-0.38-3.01-11.49-49.4-48.81-89.68
			C567.85,218.79,578.95,172.4,579.33,169.39z" />
		<path class="path" d="M664.65,167.21c-53.34,0-93.56,39.71-93.56,92.38c0,52.67,40.22,92.38,93.56,92.38
			c53.33,0,93.55-39.72,93.55-92.38C758.2,206.93,717.98,167.21,664.65,167.21z M710.94,259.59c0,27.28-20.33,48.64-46.29,48.64
			c-25.96,0-46.3-21.37-46.3-48.64s20.34-48.64,46.3-48.64C690.6,210.95,710.94,232.31,710.94,259.59z" />
		<path class="path" d="M238.9,276.84h18.02c0.12-1.56,0.5-7.43,0.5-17.26c0-52.66-40.22-92.38-93.55-92.38
			c-53.34,0-93.56,39.71-93.56,92.38c0,52.67,40.22,92.38,93.56,92.38c32.23,0,59.66-14.5,76.33-37.6L197,293.86
			c-8.35,8.92-20.02,14.38-33.14,14.38c-20.15,0-36.9-12.87-43.4-31.39h86.79H238.9z M120.46,242.36
			c6.49-18.53,23.25-31.41,43.41-31.41c20.16,0,36.91,12.89,43.4,31.41H120.46z" />
		<path class="path" d="M356.13,130.26v117.82c-30.14-17.45-48.88-41.2-56.79-78.68c-0.01,0-50.28,0-50.28,0
			c0.38,3.01,11.49,49.4,48.81,89.68c-37.33,40.27-48.43,86.67-48.81,89.68c0,0,50.28,0,50.28,0c7.91-37.48,26.66-61.23,56.79-78.68
			v78.68h50.4V130.26H356.13z" />
	</g>
</svg>